<svg xmlns="http://www.w3.org/2000/svg" width="72.968" height="73" viewBox="0 0 72.968 73">
  <g id="fullscreen-icon" transform="translate(-15114.532 4883.5)">
    <path id="Interseção_27" data-name="Interseção 27" d="M47.761,73.5V63.429H63.5V47.686h10V62.5a11,11,0,0,1-11,11ZM11.5,73.5A11,11,0,0,1,.532,63.338V47.686h10.5V63.429H26.771V73.5Zm52-46.805V10.952H47.761V.5H62.5a11,11,0,0,1,11,11V26.695Zm-62.973,0V10.662A11,11,0,0,1,11.5.5h15.27V10.952H11.028V26.695Z" transform="translate(15114 -4884)" fill="#fff"/>
    <path id="Subtração_7" data-name="Subtração 7" d="M0,4H0V0H4A4.131,4.131,0,0,0,0,4Z" transform="translate(15125 -4873)" fill="#fff"/>
    <path id="Subtração_8" data-name="Subtração 8" d="M0,0H0V4H4A4.131,4.131,0,0,1,0,0Z" transform="translate(15178 -4869) rotate(180)" fill="#fff"/>
    <path id="Subtração_9" data-name="Subtração 9" d="M0,0H0V4H4A4.131,4.131,0,0,1,0,0Z" transform="translate(15125 -4824)" fill="#fff"/>
    <path id="Subtração_10" data-name="Subtração 10" d="M0,4H0V0H4A4.131,4.131,0,0,0,0,4Z" transform="translate(15178 -4820) rotate(180)" fill="#fff"/>
  </g>
</svg>
