<svg id="logo" xmlns="http://www.w3.org/2000/svg" xmlns:xlink="http://www.w3.org/1999/xlink" width="336.642" height="176.035" viewBox="0 0 336.642 176.035">
  <defs>
    <linearGradient id="linear-gradient" x1="1" y1="0.154" x2="-0.304" y2="1.429" gradientUnits="objectBoundingBox">
      <stop offset="0" stop-color="#7f51fb"/>
      <stop offset="1" stop-color="#c220a0"/>
    </linearGradient>
  </defs>
  <g id="_2433658196368" transform="translate(0 0)">
    <path id="Caminho_350" data-name="Caminho 350" d="M318.4,48.734V9.215a8.9,8.9,0,0,1,2.686-6.529A8.89,8.89,0,0,1,327.613,0a8.58,8.58,0,0,1,6.432,2.686,9.065,9.065,0,0,1,2.593,6.529V85.35c-.064-.157-.125-.315-.194-.472q.194,2.456.194,4.988a53.7,53.7,0,0,1-6.718,26.877,48.8,48.8,0,0,1-18.336,18.623,52.252,52.252,0,0,1-51.262,0,48.826,48.826,0,0,1-18.336-18.623,53.7,53.7,0,0,1-6.718-26.877A54.785,54.785,0,0,1,241.985,62.8,48.43,48.43,0,0,1,260.321,43.98a52.252,52.252,0,0,1,51.262,0,49.033,49.033,0,0,1,6.815,4.75Zm-300.159.149V9.364a8.9,8.9,0,0,0-2.686-6.529A8.89,8.89,0,0,0,9.025.149,8.58,8.58,0,0,0,2.593,2.835,9.064,9.064,0,0,0,0,9.364V90.016a53.7,53.7,0,0,0,6.718,26.877,48.8,48.8,0,0,0,18.336,18.623,50.259,50.259,0,0,0,25.631,6.718,50.269,50.269,0,0,0,25.631-6.718,48.827,48.827,0,0,0,18.336-18.623,53.7,53.7,0,0,0,6.718-26.877,54.785,54.785,0,0,0-6.718-27.071A48.43,48.43,0,0,0,76.317,44.129,50.259,50.259,0,0,0,50.686,37.41a50.259,50.259,0,0,0-25.631,6.718,49.034,49.034,0,0,0-6.815,4.75Zm0,41.133A38.988,38.988,0,0,1,22.558,71.49,32.034,32.034,0,0,1,34.269,58.82a30.89,30.89,0,0,1,16.417-4.512A30.867,30.867,0,0,1,67.1,58.82,32.034,32.034,0,0,1,78.809,71.49a38.988,38.988,0,0,1,4.319,18.526,38.019,38.019,0,0,1-4.319,18.239A32.2,32.2,0,0,1,67.1,120.829a30.887,30.887,0,0,1-16.413,4.512,30.891,30.891,0,0,1-16.417-4.512,32.2,32.2,0,0,1-11.711-12.574A38.02,38.02,0,0,1,18.239,90.016Zm112.78,43.855a8.543,8.543,0,0,1-8.573,8.589,7.972,7.972,0,0,1-5.984-2.5,8.443,8.443,0,0,1-2.412-6.085V8.884a8.3,8.3,0,0,1,2.5-6.085,8.263,8.263,0,0,1,6.073-2.5,7.973,7.973,0,0,1,5.984,2.5,8.443,8.443,0,0,1,2.412,6.085Zm84.511-88.318a8.178,8.178,0,0,1,6.162,2.5,8.443,8.443,0,0,1,2.411,6.085v77.325q0,22.375-12.328,33.471t-32.511,11.1a68.072,68.072,0,0,1-13.041-1.254,39.141,39.141,0,0,1-10.541-3.4q-6.611-3.043-6.609-8.235a10.116,10.116,0,0,1,.359-2.327,10.222,10.222,0,0,1,3.037-4.654,6.857,6.857,0,0,1,4.464-1.609,6.72,6.72,0,0,1,2.682.536,104.388,104.388,0,0,0,9.823,3.936,31.592,31.592,0,0,0,10,1.432q27.692,0,27.688-28.458v-3.581a32.6,32.6,0,0,1-12.416,10.025,40.378,40.378,0,0,1-17.417,3.581q-14.826,0-23.135-9.489t-8.307-24.881V54.142a8.542,8.542,0,0,1,2.323-6.174,8.049,8.049,0,0,1,6.073-2.416,8.178,8.178,0,0,1,6.162,2.5,8.443,8.443,0,0,1,2.411,6.085v49.045q0,11.814,5.182,17.453t15.719,5.638q10.18,0,16.792-6.444t6.609-16.647V54.142a8.542,8.542,0,0,1,2.323-6.174,8.048,8.048,0,0,1,6.073-2.416ZM318.4,89.867a38.989,38.989,0,0,0-4.319-18.526,32.034,32.034,0,0,0-11.711-12.67,32.1,32.1,0,0,0-32.825,0,32.034,32.034,0,0,0-11.711,12.67,38.988,38.988,0,0,0-4.319,18.526,38.019,38.019,0,0,0,4.319,18.239,32.2,32.2,0,0,0,11.711,12.574,32.1,32.1,0,0,0,32.825,0,32.2,32.2,0,0,0,11.711-12.574A38.02,38.02,0,0,0,318.4,89.867Z" transform="translate(0 0)" fill="#0b0421"/>
    <path id="Caminho_351" data-name="Caminho 351" d="M790.59,302.027a9.251,9.251,0,0,0,8.8,6.376,8.581,8.581,0,0,0,6.432-2.686,9.064,9.064,0,0,0,2.593-6.529V278.71a54.56,54.56,0,0,1-3.142,6.553,53.061,53.061,0,0,1-14.682,16.763Z" transform="translate(-471.777 -166.317)" fill="url(#linear-gradient)"/>
  </g>
</svg>
