<svg xmlns="http://www.w3.org/2000/svg" xmlns:xlink="http://www.w3.org/1999/xlink" width="500.348" height="760.706" viewBox="0 0 500.348 760.706">
  <defs>
    <linearGradient id="linear-gradient" y1="-0.116" x2="0.879" y2="1.113" gradientUnits="objectBoundingBox">
      <stop offset="0" stop-color="#6d68fb"/>
      <stop offset="1" stop-color="#c500ff"/>
    </linearGradient>
    <linearGradient id="linear-gradient-2" x1="1" y1="0.154" x2="-0.304" y2="1.429" gradientUnits="objectBoundingBox">
      <stop offset="0" stop-color="#7f51fb"/>
      <stop offset="1" stop-color="#c220a0"/>
    </linearGradient>
  </defs>
  <g id="Grupo_128" data-name="Grupo 128" transform="translate(434.575 -3042.766)">
    <g id="Grupo_126" data-name="Grupo 126" transform="translate(0 -42)">
      <g id="Camada_x0020_1" transform="translate(-294 3267.869)">
        <g id="_2433658346720" transform="translate(0 0)">
          <path id="Caminho_356" data-name="Caminho 356" d="M38.41,102.608V19.4A18.714,18.714,0,0,0,32.753,5.651,18.718,18.718,0,0,0,19.008-.01,18.047,18.047,0,0,0,5.465,5.651,19.065,19.065,0,0,0,.01,19.4V189.235h0c0,.327,0,.658,0,.985h0c0,.327,0,.654.012.981h0c0,.327.012.65.016.977h0c.008.327.016.65.024.973h0c.008.323.02.646.032.973h0l.036.969h0c.012.323.028.642.044.965h0c.016.319.032.642.052.961h0c.02.319.036.638.061.957h0c.02.319.044.638.065.957h0c.024.319.048.634.073.953h0c.024.315.052.634.081.949h0l.085.945h0c.028.315.061.63.093.941h0c.032.315.065.626.1.941h0c.036.311.069.626.109.937h0c.036.311.073.622.113.933h0c.04.311.081.622.121.929h0c.04.311.085.618.129.929h0c.044.307.089.618.133.925h0c.044.307.093.614.141.921h0c.048.307.1.614.149.917s.1.61.157.913h0c.052.3.1.61.162.913l.17.909h0c.057.3.117.606.178.9h0c.061.3.121.6.182.9h0c.061.3.125.6.19.9s.129.6.2.9h0c.069.3.133.594.2.892s.137.594.21.888h0l.218.884h0c.073.295.149.59.226.884h0c.077.295.153.585.23.88s.157.585.238.876.162.581.246.872h0c.085.291.166.581.25.868s.17.577.258.868.178.577.266.864.182.573.275.86h0c.093.287.186.573.279.856h0c.093.287.19.569.287.856s.194.569.295.852h0c.1.283.2.565.3.848h0c.1.283.2.565.307.844s.21.561.315.84.214.561.323.84l.327.836h0c.109.279.222.553.335.832s.226.553.343.828.23.549.347.828H9c.117.275.234.549.355.824h0c.121.275.242.545.363.82h0c.121.275.246.545.371.816l.376.812h0c.125.271.254.541.384.812h0c.129.271.258.537.392.808h0c.129.266.262.537.4.8h0c.133.267.266.533.4.8h0l.412.8h0c.137.267.279.529.416.8h0c.141.262.283.529.424.791s.287.525.432.787h0c.145.262.291.525.44.783h0c.145.262.295.521.444.779h0l.448.775h0c.149.258.3.513.456.771h0l.46.763h0c.153.254.307.509.464.759h0c.157.25.311.5.468.755h0c.157.25.315.5.476.747h0c.157.25.319.5.481.743h0l.485.739h0c.162.246.327.489.489.731h0c.166.242.327.485.5.727h0c.331.485.666.961,1.005,1.437h0c.17.238.339.476.509.711h0c.17.238.343.472.517.707h0c.174.234.347.468.521.7h0c.174.234.347.464.525.694h0c.178.23.351.46.529.69h0q1.066,1.375,2.172,2.705h0q.551.666,1.114,1.32h0c.186.218.376.436.565.654h0c.19.218.38.432.569.646h0c.19.214.384.428.573.642h0c.194.214.388.424.581.638h0c.388.424.779.84,1.175,1.256h0q.594.624,1.2,1.236h0c.2.206.4.408.606.61h0c.2.2.408.4.61.606h0q.612.6,1.236,1.2h0c.206.2.416.392.626.59h0c.21.194.42.392.63.581h0c.21.194.424.388.634.577h0c.214.19.428.384.642.573h0c.214.19.428.38.646.569h0c.214.19.432.375.65.561h0l.654.557h0c.218.186.44.367.662.553h0l.666.545h0c.222.182.448.363.67.541s.448.359.674.537h0c.226.178.452.355.682.529h0c.226.178.456.351.686.525h0l.69.521c.23.174.464.343.694.513l.7.509c.234.17.468.335.707.5h0c.234.166.472.331.711.5s.476.331.715.493h0c.238.162.481.327.723.489h0c.242.161.485.323.727.48s.489.319.731.476l.735.472h0c.246.157.493.311.743.464s.5.307.747.46.5.3.751.456.5.3.755.448h0c.254.149.509.3.763.444s.509.295.767.44.513.291.767.432.513.283.771.424.517.279.771.416l.775.412c.258.137.517.271.779.4s.521.266.779.4.521.262.783.392.525.258.783.384l.787.376h0c.262.125.525.246.791.371l.791.363h0c.266.121.529.238.8.355s.533.234.8.347h0c.267.117.533.23.8.343s.533.226.8.335h0l.8.327.808.323h0l.812.315c.271.1.541.206.812.307h0c.271.1.541.2.816.3h0c.271.1.545.2.816.295h0c.275.1.545.194.82.287h0l.824.279h0c.275.093.549.182.824.275h0l.828.266h0c.275.089.553.174.828.258h0c.279.085.553.17.832.25h0c.279.085.557.165.836.246h0c.279.081.557.161.836.238h0c.279.077.557.157.84.23h0c.279.077.561.149.84.226h0l.844.218h0c.283.073.565.141.848.21h0c.283.069.565.137.848.2h0c.283.069.569.133.852.2h0c.283.065.569.129.856.19h0c.287.061.569.125.856.182h0c.287.061.573.117.86.178h0l.86.17h0c.287.057.577.109.864.161h0l.868.158h0c.291.052.577.1.868.149h0c.291.048.581.1.872.141h0c.291.044.581.093.872.133h0c.291.044.585.085.876.129h0l.88.121h0c.295.04.585.077.88.113h0l.884.109h0c.295.036.59.069.884.1h0c.295.032.594.065.888.093h0c.295.028.594.061.892.085h0c.3.028.594.052.892.081h0l.9.073h0c.3.024.6.044.9.065h0l.9.061h0c.3.02.6.036.9.052h0c.3.016.6.032.9.044h0c.3.012.606.028.909.036h0c.3.012.606.02.913.032h0l.913.024h0c.3.008.61.012.917.016h0l.917.012h0c.307,0,.614,0,.921,0h0c.307,0,.614,0,.921,0h0c.307,0,.614,0,.917-.012h0c.307,0,.61-.012.917-.016h0l.913-.024h0c.3-.008.606-.02.913-.032h0l.909-.036h0c.3-.012.606-.028.9-.044h0c.3-.016.6-.032.9-.052h0c.3-.02.6-.036.9-.061h0c.3-.02.6-.044.9-.065h0l.9-.073h0c.3-.024.6-.052.892-.081h0l.892-.085h0c.295-.028.594-.061.888-.093h0c.295-.032.59-.065.884-.1h0c.295-.036.59-.069.884-.109h0c.295-.036.59-.077.88-.113h0l.88-.121h0c.291-.04.585-.085.876-.129h0l.872-.133h0c.291-.044.581-.093.872-.141h0c.291-.048.581-.1.868-.149h0c.291-.053.577-.1.868-.158h0c.287-.052.577-.109.864-.161h0l.86-.17h0c.287-.057.573-.117.86-.178h0l.856-.182h0c.287-.061.569-.125.856-.19h0c.283-.065.569-.129.852-.2h0c.283-.069.565-.133.848-.2h0c.283-.069.565-.137.848-.21h0l.844-.218h0c.283-.073.561-.149.84-.226h0l.84-.23h0c.279-.077.557-.157.836-.238h0c.279-.081.557-.162.836-.246h0l.832-.25h0c.279-.085.553-.17.828-.258h0l.828-.266h0c.275-.089.549-.182.824-.275h0l.824-.279h0c.275-.093.545-.19.82-.287h0c.275-.1.545-.194.816-.295h0c.271-.1.545-.2.816-.3h0c.271-.1.541-.2.812-.307l.812-.315h0c.271-.1.537-.214.808-.323s.537-.218.8-.327h0c.266-.109.537-.222.8-.335s.533-.226.8-.343h0c.267-.117.533-.23.8-.347s.529-.234.8-.355h0c.266-.121.529-.242.791-.363s.529-.246.791-.371h0l.787-.376c.262-.125.525-.254.783-.384s.521-.258.783-.392.521-.262.779-.4.517-.267.779-.4l.775-.412c.258-.137.517-.279.771-.416l.771-.424c.254-.141.513-.287.767-.432s.509-.291.767-.44.509-.295.763-.444h0c.254-.149.5-.3.755-.448s.5-.3.751-.456.5-.307.747-.46l.743-.464h0c.246-.158.493-.315.735-.472s.489-.319.731-.476.485-.319.727-.48h0c.242-.162.48-.323.723-.489h0c.238-.161.476-.327.715-.493s.476-.331.711-.5h0c.234-.166.472-.335.707-.5l.7-.509c.234-.17.464-.343.695-.513l.69-.521h0c.23-.174.456-.347.686-.525h0c.226-.178.456-.351.682-.529h0c.226-.178.452-.355.674-.537s.448-.359.67-.541h0l.666-.545h0c.222-.182.44-.367.662-.553h0l.654-.557h0c.218-.186.436-.376.65-.561h0c.214-.19.432-.376.646-.569h0c.214-.19.428-.38.642-.573h0c.214-.19.424-.384.634-.577h0l.63-.581h0c.21-.194.42-.392.626-.59h0c.416-.4.828-.791,1.236-1.2h0c.206-.2.408-.4.61-.606h0c.2-.2.4-.408.606-.61h0c.4-.408.8-.82,1.2-1.236h0q.594-.624,1.175-1.256h0c.194-.21.388-.424.581-.638h0c.194-.214.384-.428.573-.642h0c.19-.214.38-.432.569-.646h0c.19-.218.38-.436.565-.654h0q.563-.654,1.114-1.32h0q1.108-1.332,2.172-2.705h0c.178-.23.355-.46.529-.69h0c.178-.23.351-.464.525-.694h0c.174-.234.347-.464.521-.7h0c.174-.234.343-.468.517-.707h0c.17-.234.339-.472.509-.711h0q.509-.715,1.005-1.437h0l.5-.727h0c.166-.242.327-.489.489-.731h0l.485-.739h0c.162-.246.319-.5.481-.743h0c.157-.25.319-.5.476-.747h0c.158-.25.315-.5.468-.755h0c.157-.25.311-.5.464-.759h0l.46-.763h0c.153-.254.3-.513.456-.771h0l.448-.775h0c.149-.258.3-.521.444-.779h0c.145-.262.295-.521.44-.783h0c.145-.262.291-.525.432-.787s.283-.525.424-.791h0c.141-.262.279-.529.416-.8h0l.412-.8h0c.137-.266.271-.533.4-.8h0c.133-.266.266-.537.4-.8h0c.133-.266.262-.537.392-.808h0c.129-.271.258-.541.384-.812h0l.376-.812c.125-.271.246-.545.371-.816h0c.121-.275.242-.545.363-.82h0c.121-.275.238-.549.355-.824h0c.117-.275.234-.549.347-.828s.23-.553.343-.828.226-.553.335-.832h0l.327-.836c.109-.279.214-.557.323-.84s.21-.561.315-.84.206-.561.307-.844h0c.1-.283.2-.565.3-.848h0c.1-.283.2-.565.295-.852s.194-.569.287-.856h0c.093-.287.186-.569.279-.856h0c.093-.287.182-.573.275-.86s.178-.573.266-.864.174-.577.258-.868.17-.577.25-.868h0c.085-.291.166-.581.246-.872s.162-.586.238-.876.157-.585.23-.88h0c.077-.295.149-.59.226-.884h0l.218-.884h0c.073-.295.141-.594.21-.888s.137-.594.2-.892h0c.069-.3.133-.6.2-.9s.129-.6.19-.9h0c.061-.3.121-.6.182-.9h0c.061-.3.117-.6.178-.9h0l.17-.909c.057-.3.109-.606.162-.913h0c.053-.3.1-.61.157-.913s.1-.61.149-.917h0c.048-.307.1-.614.141-.921h0c.044-.307.089-.614.133-.925h0c.044-.307.085-.618.129-.929h0c.04-.311.081-.618.121-.929h0c.04-.311.077-.622.113-.933h0c.036-.311.073-.622.109-.937h0c.036-.311.069-.626.1-.941h0c.032-.315.065-.63.093-.941h0c.028-.315.061-.63.085-.945h0c.028-.315.053-.634.081-.949h0c.024-.319.048-.634.073-.953h0c.024-.319.044-.638.065-.957h0l.061-.957h0c.02-.319.036-.642.053-.961h0c.016-.323.032-.642.044-.965h0c.012-.323.028-.646.036-.969h0c.012-.323.02-.646.032-.973h0c.008-.323.016-.65.024-.973h0c.008-.327.012-.65.016-.977h0q.006-.491.012-.981h0c0-.327,0-.654,0-.985V19.4a19.1,19.1,0,0,0-5.455-13.745A18.061,18.061,0,0,0,194.4-.01a18.7,18.7,0,0,0-13.745,5.661A18.714,18.714,0,0,0,175,19.4v83.212c-.283-.238-.569-.472-.856-.707l-.2-.157c-.186-.149-.367-.3-.553-.444l-.424-.339-.153-.121a102.38,102.38,0,0,0-25.652-14.811A107.426,107.426,0,0,0,108,78.461l-.21,0c-.363,0-.731,0-1.1,0h0c-.367,0-.731,0-1.1,0l-.21,0a107.341,107.341,0,0,0-39.167,7.567,102.31,102.31,0,0,0-25.652,14.811l-.153.121-.424.339-.553.444-.2.157c-.287.234-.573.468-.856.707Zm69.007,15.348a73.933,73.933,0,1,1-73.933,73.933A73.935,73.935,0,0,1,107.416,117.955Zm106.022,71.256Z" transform="translate(-0.01 0.01)" fill="#0b0421"/>
          <path id="Caminho_357" data-name="Caminho 357" d="M186.858,343.85a53.578,53.578,0,1,1-53.578,53.578A53.579,53.579,0,0,1,186.858,343.85Zm0,29a24.574,24.574,0,1,1-24.574,24.574,24.575,24.575,0,0,1,24.574-24.574Z" transform="translate(-79.468 -205.005)" fill-rule="evenodd" fill="url(#linear-gradient)"/>
          <path id="Caminho_358" data-name="Caminho 358" d="M285.472,403.44A12.772,12.772,0,1,1,272.7,416.212,12.771,12.771,0,0,1,285.472,403.44Z" transform="translate(-162.592 -240.534)" fill="#0b0421" fill-rule="evenodd"/>
        </g>
      </g>
      <g id="Camada_x0020_1-2" data-name="Camada_x0020_1" transform="translate(-375 3649.313)">
        <g id="_2433658196368" transform="translate(0 0)">
          <path id="Caminho_350" data-name="Caminho 350" d="M354.8,54.3V10.268a9.913,9.913,0,0,1,2.993-7.275A9.906,9.906,0,0,1,365.063,0a9.561,9.561,0,0,1,7.167,2.993,10.1,10.1,0,0,1,2.889,7.275V95.107c-.072-.175-.139-.35-.216-.526q.216,2.737.216,5.559a59.841,59.841,0,0,1-7.486,29.95A54.377,54.377,0,0,1,347.2,150.841a58.225,58.225,0,0,1-57.122,0,54.408,54.408,0,0,1-20.432-20.751,59.841,59.841,0,0,1-7.486-29.95,61.047,61.047,0,0,1,7.486-30.165,53.966,53.966,0,0,1,20.432-20.967,58.225,58.225,0,0,1,57.122,0A54.637,54.637,0,0,1,354.8,54.3Zm-334.471.166V10.434a9.913,9.913,0,0,0-2.993-7.275A9.906,9.906,0,0,0,10.057.166,9.561,9.561,0,0,0,2.889,3.159,10.1,10.1,0,0,0,0,10.434v89.872a59.841,59.841,0,0,0,7.486,29.95,54.377,54.377,0,0,0,20.432,20.751,56,56,0,0,0,28.561,7.486,56.016,56.016,0,0,0,28.561-7.486,54.408,54.408,0,0,0,20.432-20.751,59.841,59.841,0,0,0,7.486-29.95,61.047,61.047,0,0,0-7.486-30.165A53.967,53.967,0,0,0,85.041,49.173,56,56,0,0,0,56.48,41.687a56,56,0,0,0-28.561,7.486,54.638,54.638,0,0,0-7.594,5.293Zm0,45.835a43.445,43.445,0,0,1,4.813-20.644A35.7,35.7,0,0,1,38.186,65.543,34.422,34.422,0,0,1,56.48,60.515a34.4,34.4,0,0,1,18.289,5.028A35.7,35.7,0,0,1,87.818,79.662a43.445,43.445,0,0,1,4.813,20.644,42.366,42.366,0,0,1-4.813,20.324,35.877,35.877,0,0,1-13.049,14.011A34.417,34.417,0,0,1,56.48,139.67a34.422,34.422,0,0,1-18.293-5.028A35.877,35.877,0,0,1,25.137,120.63a42.366,42.366,0,0,1-4.813-20.324ZM146,149.173a9.52,9.52,0,0,1-9.553,9.571,8.884,8.884,0,0,1-6.668-2.79,9.408,9.408,0,0,1-2.687-6.781V9.9a9.244,9.244,0,0,1,2.786-6.781A9.208,9.208,0,0,1,136.641.328a8.884,8.884,0,0,1,6.668,2.791A9.408,9.408,0,0,1,146,9.9ZM240.168,50.76a9.113,9.113,0,0,1,6.866,2.791,9.408,9.408,0,0,1,2.687,6.781V146.5q0,24.933-13.737,37.3t-36.227,12.366a75.854,75.854,0,0,1-14.532-1.4,43.615,43.615,0,0,1-11.746-3.788q-7.367-3.39-7.365-9.176a11.272,11.272,0,0,1,.4-2.593,11.39,11.39,0,0,1,3.384-5.186,7.641,7.641,0,0,1,4.974-1.793,7.488,7.488,0,0,1,2.988.6,116.329,116.329,0,0,0,10.946,4.386,35.2,35.2,0,0,0,11.149,1.6q30.857,0,30.853-31.711V143.1a36.32,36.32,0,0,1-13.836,11.171,44.993,44.993,0,0,1-19.408,3.99q-16.521,0-25.78-10.573t-9.257-27.725V60.331a9.519,9.519,0,0,1,2.588-6.88,8.969,8.969,0,0,1,6.767-2.692,9.113,9.113,0,0,1,6.866,2.791,9.408,9.408,0,0,1,2.687,6.781v54.651q0,13.164,5.774,19.448t17.516,6.282q11.344,0,18.711-7.181t7.365-18.549V60.331a9.518,9.518,0,0,1,2.588-6.88,8.969,8.969,0,0,1,6.767-2.692ZM354.8,100.139A43.445,43.445,0,0,0,349.983,79.5a35.7,35.7,0,0,0-13.049-14.119,35.774,35.774,0,0,0-36.578,0A35.7,35.7,0,0,0,287.306,79.5a43.445,43.445,0,0,0-4.813,20.644,42.366,42.366,0,0,0,4.813,20.324,35.877,35.877,0,0,0,13.049,14.011,35.774,35.774,0,0,0,36.578,0,35.877,35.877,0,0,0,13.049-14.011A42.366,42.366,0,0,0,354.8,100.139Z" transform="translate(0 0)" fill="#0b0421"/>
          <path id="Caminho_351" data-name="Caminho 351" d="M790.59,304.692a10.306,10.306,0,0,0,9.81,7.1,9.561,9.561,0,0,0,7.167-2.993,10.1,10.1,0,0,0,2.889-7.275V278.71a60.8,60.8,0,0,1-3.5,7.3,59.114,59.114,0,0,1-16.361,18.68Z" transform="translate(-435.332 -153.469)" fill="url(#linear-gradient-2)"/>
        </g>
      </g>
    </g>
    <path id="Icon_ionic-md-star" data-name="Icon ionic-md-star" d="M34.59,51.556,53.619,63.037,48.585,41.38l16.8-14.562-22.144-1.9L34.59,4.5,25.94,24.917,3.8,26.818l16.8,14.562L15.559,63.037Z" transform="translate(-157.879 3038.266)" fill="#0b0421"/>
    <path id="Icon_ionic-md-star-2" data-name="Icon ionic-md-star" d="M24.054,35.456l12.518,7.553L33.261,28.762l11.05-9.579L29.743,17.931,24.054,4.5l-5.69,13.431L3.8,19.182l11.05,9.579L11.535,43.008Z" transform="translate(21.462 3462.916)" fill="#0b0421" opacity="0.7"/>
    <path id="Icon_ionic-md-star-3" data-name="Icon ionic-md-star" d="M23.178,34.117l11.977,7.226L31.987,27.713l10.572-9.165-13.938-1.2L23.178,4.5,17.734,17.35,3.8,18.547l10.572,9.165L11.2,41.343Z" transform="translate(21.462 3194.802)" fill="#af1afe"/>
    <path id="Icon_ionic-md-star-4" data-name="Icon ionic-md-star" d="M21.017,30.815l10.642,6.42L28.844,25.125l9.394-8.143L25.854,15.918,21.017,4.5,16.18,15.918,3.8,16.981l9.394,8.143L10.375,37.236Z" transform="translate(-438.372 3446.548)" fill="#8749fc"/>
    <path id="Icon_ionic-md-star-5" data-name="Icon ionic-md-star" d="M18.933,27.631l9.354,5.643L25.813,22.629l8.257-7.158-10.885-.935L18.933,4.5,14.681,14.536,3.8,15.471l8.257,7.158L9.579,33.274Z" transform="translate(-378.797 3140.594)" fill="#0b0421" opacity="0.8"/>
  </g>
</svg>
